#N canvas 1087 344 570 560 10;
#X obj 47 84 mrpeach/unpackOSC;
#X obj 47 107 mrpeach/routeOSC /distance;
#X obj 47 130 unpack;
#X floatatom 79 155 5 0 0 1 signal_strength - -, f 5;
#X floatatom 197 346 5 0 0 0 - - -, f 5;
#X obj 148 384 t f f;
#X obj 148 407 * 127;
#X obj 118 306 clip 30 50;
#X obj 147 337 - 30;
#X obj 147 362 / 20;
#X obj 148 482 line;
#X obj 331 84 timer;
#X obj 331 64 t b b;
#X floatatom 331 185 5 0 0 0 - - -, f 5;
#X obj 331 144 int;
#X obj 331 164 / 10;
#X obj 331 124 * 10;
#X obj 331 104 puremapping/iir 50;
#X msg 148 457 \$1 10;
#X obj 148 432 puremapping/iir 5;
#X floatatom 147 244 5 0 0 0 - - -, f 5;
#X floatatom 188 245 5 0 0 0 - - -, f 5;
#X obj 197 299 -;
#X obj 157 268 t b f;
#X obj 148 505 outlet;
#X obj 47 61 mrpeach/udpreceive \$1;
#X obj 47 276 moses \$2;
#X obj 47 253 moses \$5;
#X obj 145 180 loadbang;
#X obj 145 203 i \$3;
#X obj 181 202 i \$4;
#X connect 0 0 1 0;
#X connect 1 0 2 0;
#X connect 2 0 12 0;
#X connect 2 0 27 0;
#X connect 2 1 3 0;
#X connect 5 0 6 0;
#X connect 6 0 19 0;
#X connect 7 0 8 0;
#X connect 8 0 4 0;
#X connect 8 0 9 0;
#X connect 9 0 5 0;
#X connect 10 0 24 0;
#X connect 11 0 17 0;
#X connect 12 0 11 0;
#X connect 12 1 11 1;
#X connect 14 0 15 0;
#X connect 15 0 13 0;
#X connect 16 0 14 0;
#X connect 17 0 16 0;
#X connect 18 0 10 0;
#X connect 19 0 18 0;
#X connect 20 0 7 1;
#X connect 20 0 8 1;
#X connect 20 0 23 0;
#X connect 21 0 7 2;
#X connect 21 0 22 0;
#X connect 22 0 9 1;
#X connect 23 0 22 0;
#X connect 23 1 22 1;
#X connect 25 0 0 0;
#X connect 26 1 7 0;
#X connect 27 0 26 0;
#X connect 28 0 29 0;
#X connect 28 0 30 0;
#X connect 29 0 20 0;
#X connect 30 0 21 0;
