#N canvas 1286 37 627 1012 10;
#X obj 26 282 dac~ 1 2;
#X obj 29 171 hsl 128 15 0 127 0 0 empty empty empty -2 -8 0 10 -262144
-1 -1 0 1;
#X obj 39 201 hsl 128 15 0 127 0 0 empty empty empty -2 -8 0 10 -262144
-1 -1 370 1;
#X text 28 152 pitch;
#X text 38 185 volume;
#X text 192 188 mute;
#X obj 26 224 vinyl_synth 997.5 2337;
#X obj 188 209 tgl 15 0 empty empty empty 17 7 0 10 -262144 -1 -1 1
1;
#X text 43 511 receiveLidar <port> <low limit> <low clip> <high clip>
<high limit>, f 78;
#X text 94 536 low limit : distance en cm en dessous de laquelle les
valeurs sont ignoreés \,;
#X text 94 615 high clip : distance en cm au dessus de laquelle les
valeurs sont constantes;
#X text 94 575 low clip : distance en cm en dessous de laquelle les
valeurs sont constantes;
#X text 95 653 high limit : distance en cm au dessus de laquelle les
valeurs sont ignoreés \,;
#X obj 226 282 dac~ 1 2;
#X obj 229 171 hsl 128 15 0 127 0 0 empty empty empty -2 -8 0 10 -262144
-1 -1 0 1;
#X obj 239 201 hsl 128 15 0 127 0 0 empty empty empty -2 -8 0 10 -262144
-1 -1 2438 1;
#X text 228 152 pitch;
#X text 238 185 volume;
#X text 392 188 mute;
#X obj 226 224 vinyl_synth 997.5 2337;
#X obj 388 209 tgl 15 0 empty empty empty 17 7 0 10 -262144 -1 -1 0
1;
#X obj 227 84 receiveLidar 3333 22 30 80 100;
#X obj 436 282 dac~ 1 2;
#X obj 439 171 hsl 128 15 0 127 0 0 empty empty empty -2 -8 0 10 -262144
-1 -1 12457 1;
#X obj 449 201 hsl 128 15 0 127 0 0 empty empty empty -2 -8 0 10 -262144
-1 -1 8348 1;
#X text 438 152 pitch;
#X text 448 185 volume;
#X text 602 188 mute;
#X obj 436 224 vinyl_synth 997.5 2337;
#X obj 598 209 tgl 15 0 empty empty empty 17 7 0 10 -262144 -1 -1 0
1;
#X obj 26 85 receiveLidar 3331 22 30 80 100;
#X obj 36 118 receiveLidar 3332 22 30 80 100;
#X obj 236 118 receiveLidar 3334 22 30 80 100;
#X obj 437 85 receiveLidar 3335 22 30 80 100;
#X obj 446 118 receiveLidar 3336 22 30 80 100;
#X connect 1 0 6 0;
#X connect 2 0 6 1;
#X connect 6 0 0 0;
#X connect 6 0 0 1;
#X connect 7 0 6 2;
#X connect 14 0 19 0;
#X connect 15 0 19 1;
#X connect 19 0 13 0;
#X connect 19 0 13 1;
#X connect 20 0 19 2;
#X connect 21 0 14 0;
#X connect 23 0 28 0;
#X connect 24 0 28 1;
#X connect 28 0 22 0;
#X connect 28 0 22 1;
#X connect 29 0 28 2;
#X connect 30 0 1 0;
#X connect 31 0 2 0;
#X connect 32 0 15 0;
#X connect 33 0 23 0;
#X connect 34 0 24 0;
