#N canvas 1286 564 627 485 10;
#X obj 129 84 mrpeach/udpreceive 3333;
#X obj 129 107 mrpeach/unpackOSC;
#X obj 129 130 mrpeach/routeOSC /distance;
#X obj 129 153 unpack;
#X floatatom 162 178 5 0 0 0 - - -, f 5;
#X obj 47 248 moses 22;
#X floatatom 92 310 5 0 0 0 - - -, f 5;
#X obj 149 413 osc~;
#X floatatom 197 316 5 0 0 0 - - -, f 5;
#X obj 344 411 dac~ 1 2;
#X obj 347 300 hsl 128 15 0 127 0 0 empty empty empty -2 -8 0 10 -262144
-1 -1 2454 1;
#X obj 357 330 hsl 128 15 0 127 0 0 empty empty empty -2 -8 0 10 -262144
-1 -1 0 1;
#X text 346 281 pitch;
#X text 356 314 volume;
#X text 510 317 mute;
#X obj 344 353 vinyl_synth 997.5 2337;
#X obj 226 387 line;
#X msg 226 362 100 \, 0 200;
#X obj 148 354 t f f;
#X obj 506 338 tgl 15 0 empty empty empty 17 7 0 10 -262144 -1 -1 1
1;
#X obj 148 377 * 127;
#X obj 118 276 clip 30 50;
#X obj 147 307 - 30;
#X obj 147 332 / 20;
#X obj 345 258 line;
#X obj 380 60 timer;
#X obj 378 33 t b b;
#X floatatom 270 240 5 0 0 0 - - -, f 5;
#X obj 380 128 int;
#X obj 379 151 / 10;
#X obj 380 106 * 10;
#X obj 381 81 puremapping/iir 50;
#X msg 345 233 \$1 10;
#X obj 345 208 puremapping/iir 5;
#X floatatom 61 176 5 0 0 0 - - -, f 5;
#X floatatom 147 214 5 0 0 0 - - -, f 5;
#X floatatom 188 215 5 0 0 0 - - -, f 5;
#X obj 197 269 -;
#X obj 157 238 t b f;
#X obj 47 224 moses 100;
#X connect 0 0 1 0;
#X connect 1 0 2 0;
#X connect 2 0 3 0;
#X connect 3 0 26 0;
#X connect 3 0 34 0;
#X connect 3 0 39 0;
#X connect 3 1 4 0;
#X connect 5 1 6 0;
#X connect 5 1 21 0;
#X connect 10 0 15 0;
#X connect 11 0 15 1;
#X connect 15 0 9 0;
#X connect 15 0 9 1;
#X connect 16 0 11 0;
#X connect 17 0 16 0;
#X connect 18 0 20 0;
#X connect 18 1 17 0;
#X connect 19 0 15 2;
#X connect 20 0 33 0;
#X connect 21 0 22 0;
#X connect 22 0 8 0;
#X connect 22 0 23 0;
#X connect 23 0 18 0;
#X connect 24 0 10 0;
#X connect 25 0 31 0;
#X connect 26 0 25 0;
#X connect 26 1 25 1;
#X connect 28 0 29 0;
#X connect 29 0 27 0;
#X connect 30 0 28 0;
#X connect 31 0 30 0;
#X connect 32 0 24 0;
#X connect 33 0 32 0;
#X connect 35 0 21 1;
#X connect 35 0 22 1;
#X connect 35 0 38 0;
#X connect 36 0 21 2;
#X connect 36 0 37 0;
#X connect 37 0 23 1;
#X connect 38 0 37 0;
#X connect 38 1 37 1;
#X connect 39 0 5 0;
