#N canvas 860 143 420 635 10;
#X obj 46 389 osc~ 1000;
#X obj 45 364 line~;
#X msg 45 333 \$1 10;
#X text 232 158 \$1 : fader CC -> pitch;
#X text 232 178 \$2 : rot enc CC -> volume;
#X obj 45 120 / 127;
#X text 232 199 \$3 : button CC -> cut;
#X text 232 219 \$4 : lower freq;
#X text 232 238 \$5 : higher freq;
#X floatatom 45 269 5 0 0 0 - - -, f 5;
#X obj 105 301 ftom;
#X floatatom 105 324 5 0 0 0 - - -, f 5;
#X obj 46 462 *~;
#X obj 46 535 *~;
#X obj 46 558 outlet~;
#X obj 248 420 > 0;
#X obj 248 442 tgl 15 0 empty empty empty 17 7 0 10 -262144 -1 -1 0
1;
#X msg 248 462 \$1 10;
#X obj 248 485 line~;
#X obj 158 418 line~;
#X obj 158 350 / 1.27;
#X obj 158 373 dbtorms;
#X msg 158 396 \$1 10;
#X obj 129 21 loadbang;
#X obj 45 143 *;
#X obj 45 180 +;
#X obj 109 109 -;
#X floatatom 109 132 5 0 0 0 - - -, f 5;
#X obj 710 93 bng 15 250 50 0 empty empty empty 17 7 0 10 -262144 -1
-1;
#X obj 687 118 bng 15 250 50 0 empty empty empty 17 7 0 10 -262144
-1 -1;
#X obj 45 95 inlet;
#X obj 158 328 inlet;
#X obj 248 395 inlet;
#X obj 149 78 \$2;
#X obj 176 78 \$1;
#X obj 129 44 t b b b;
#X connect 0 0 12 0;
#X connect 1 0 0 0;
#X connect 2 0 1 0;
#X connect 5 0 24 0;
#X connect 9 0 10 0;
#X connect 9 0 2 0;
#X connect 10 0 11 0;
#X connect 12 0 13 0;
#X connect 13 0 14 0;
#X connect 15 0 16 0;
#X connect 16 0 17 0;
#X connect 17 0 18 0;
#X connect 18 0 13 1;
#X connect 19 0 12 1;
#X connect 20 0 21 0;
#X connect 21 0 22 0;
#X connect 22 0 19 0;
#X connect 23 0 35 0;
#X connect 24 0 25 0;
#X connect 25 0 9 0;
#X connect 26 0 24 1;
#X connect 26 0 27 0;
#X connect 30 0 5 0;
#X connect 31 0 20 0;
#X connect 32 0 15 0;
#X connect 33 0 26 0;
#X connect 34 0 26 1;
#X connect 34 0 25 1;
#X connect 35 0 5 0;
#X connect 35 1 33 0;
#X connect 35 2 34 0;
